 http://lookpic.com/O/i2/422/XJzNV2zW.jpeg


iMDB: http://uk.imdb.com/title/tt1615159/

GENRAL iNF0
Complete name : Nuclear Family 2012 DVDRip NOGRP.mp4
Format : MPEG-4
Format profile : Base Media / Version 2
Codec ID : mp42
File size : 1.12 GiB
Duration : 1h 35mn
Overall bit rate : 1 673 Kbps
Encoded date : UTC 2012-12-19 13:47:39
Tagged date : UTC 2012-12-19 13:47:39
ViDE0 iNF0
ID : 201
Format : AVC
Format/Info : Advanced Video Codec
Format profile : Baseline@L3.0
Format settings, CABAC : No
Format settings, ReFrames : 1 frame
Codec ID : avc1
Codec ID/Info : Advanced Video Coding
Duration : 1h 35mn
Bit rate mode : Variable
Bit rate : 1 575 Kbps
Maximum bit rate : 4 443 Kbps
Width : 640 pixels
Height : 360 pixels
Display aspect ratio : 16/9
Frame rate mode : Variable
Frame rate : 29.970 fps
Resolution : 24 bits
Colorimetry : 4:2:0
Scan type : Progressive
Bits/(Pixel*Frame) : 0.228
Stream size : 1.05 GiB (94%)
Writing library : x264 core 118
Encoded date : UTC 1970-01-01 00:00:00
Tagged date : UTC 2012-12-19 13:52:08
AUDi0 iNF0
ID : 101
Format : AAC
Format/Info : Advanced Audio Codec
Format version : Version 4
Format profile : LC
Format settings, SBR : No
Codec ID : 40
Duration : 1h 35mn
Bit rate mode : Variable
Bit rate : 96.0 Kbps
Maximum bit rate : 143 Kbps
Channel(s) : 2 channels
Channel positions : L R
Sampling rate : 44.1 KHz
Resolution : 16 bits
Stream size : 65.7 MiB (6%)
Encoded date : UTC 2012-12-19 13:51:39
Tagged date : UTC 2012-12-19 13:52:08


PL0T
Nuclear Family begins the story of a young couple, John and Lynn, who are trying to survive in the woods after what appears to be a nuclear holocaust...

 
http://www.shotpix.com/images/92725007504808266450.png 
http://www.shotpix.com/images/48926360156283285924.png 
http://www.shotpix.com/images/95584868425160157980.png